<?xml version="1.0" standalone="no"?>
<!DOCTYPE svg PUBLIC "-//W3C//DTD SVG 20010904//EN"
 "http://www.w3.org/TR/2001/REC-SVG-20010904/DTD/svg10.dtd">
<svg version="1.0" xmlns="http://www.w3.org/2000/svg"
 width="462.000000pt" height="462.000000pt" viewBox="0 0 462.000000 462.000000"
 preserveAspectRatio="xMidYMid meet">
<metadata>
Created by potrace 1.14, written by Peter Selinger 2001-2017
</metadata>
<g transform="translate(0.000000,462.000000) scale(0.100000,-0.100000)"
fill="#000000" stroke="none">
<path d="M1557 3644 c-1 -1 -51 -4 -112 -8 -489 -28 -924 -249 -1195 -606 -84
-112 -145 -217 -213 -370 -29 -66 -38 -90 -33 -90 3 0 40 7 83 15 43 9 94 18
113 21 19 3 52 10 73 15 21 6 50 12 65 14 83 12 158 29 169 37 6 5 14 21 18
36 15 62 83 195 147 288 51 75 145 173 213 223 77 56 267 139 296 129 6 -2 -2
-10 -18 -18 -15 -8 -30 -17 -33 -20 -3 -3 -30 -24 -61 -47 -103 -77 -223 -202
-297 -313 -133 -197 -191 -428 -172 -682 4 -49 12 -57 34 -35 7 6 68 59 134
117 85 73 122 111 122 126 0 40 40 222 66 301 55 166 152 330 245 411 l37 33
-53 -118 c-79 -179 -145 -388 -169 -540 -2 -16 -7 -46 -11 -68 -8 -56 -8 -209
0 -280 4 -33 16 -89 27 -125 36 -115 130 -274 143 -240 3 8 34 101 69 207 l64
192 -19 50 c-31 82 -57 230 -57 327 0 89 22 230 39 248 5 6 7 1 5 -10 -2 -11
0 -40 4 -65 5 -24 11 -61 14 -82 29 -188 171 -533 323 -785 163 -272 314 -450
474 -562 l64 -44 -40 49 c-87 107 -125 169 -174 285 -48 111 -64 192 -50 239
36 120 187 162 277 78 49 -46 53 -65 77 -372 6 -71 15 -172 20 -225 3 -25 7
-76 10 -115 3 -38 8 -99 12 -135 3 -36 6 -77 6 -92 1 -45 17 -32 18 15 2 54 9
135 24 267 2 19 7 64 10 100 3 36 8 81 10 100 4 35 11 114 20 225 12 143 19
168 51 212 93 123 306 57 305 -95 0 -120 -112 -359 -231 -491 -16 -18 -30 -35
-30 -37 0 -14 160 115 230 186 151 151 375 508 486 775 82 198 136 385 152
525 l8 65 18 -73 c19 -77 25 -218 13 -310 -8 -61 -41 -188 -58 -225 -9 -20 -7
-38 12 -93 13 -38 24 -71 24 -74 1 -3 21 -65 45 -137 l44 -132 23 21 c49 46
120 210 140 323 15 85 9 285 -13 415 -22 136 -97 362 -174 526 -22 47 -40 88
-40 92 0 3 23 -16 50 -43 141 -139 244 -371 290 -652 11 -71 13 -73 72 -125
34 -29 66 -57 72 -63 6 -5 41 -36 77 -67 l67 -58 5 28 c7 33 1 283 -8 332 -13
72 -73 231 -114 302 -100 175 -249 332 -432 456 -44 29 -20 28 66 -3 251 -91
454 -309 560 -600 10 -27 19 -51 20 -53 2 -2 118 -28 173 -38 12 -2 32 -6 45
-8 12 -2 80 -16 151 -30 71 -14 132 -24 134 -21 9 9 -63 167 -142 310 -81 147
-288 368 -441 469 -49 33 -132 81 -185 108 -92 45 -302 121 -372 133 -18 4
-51 10 -73 15 -22 5 -67 11 -100 15 -33 3 -73 8 -90 10 -33 4 -128 7 -189 6
-32 -1 -37 -4 -31 -18 119 -288 83 -555 -107 -811 -71 -96 -111 -119 -210
-126 -82 -6 -111 -21 -168 -84 -130 -144 -237 -147 -372 -10 -76 77 -98 88
-186 94 -36 2 -80 13 -102 24 -81 41 -208 241 -251 395 -24 84 -32 245 -17
332 8 46 43 159 58 185 7 13 3 17 -31 20 -22 2 -41 3 -42 2z"/>
<path d="M2220 2973 c-69 -26 -78 -35 -130 -135 l-53 -102 23 -15 c12 -9 56
-47 96 -85 82 -79 89 -83 131 -90 52 -10 98 15 182 97 44 42 87 77 96 77 8 0
15 3 15 8 -1 4 -24 52 -53 107 -64 124 -91 142 -214 143 -43 1 -85 -2 -93 -5z"/>
</g>
</svg>
